<svg xmlns="http://www.w3.org/2000/svg" width="39" height="33" fill="#e78200"><path d="M23.982 29.188l3.78-.123c1.03-.082 1.88-.246 2.55-.492.668-.258 1.184-.627 1.547-1.107s.627-1.113.79-1.898c.176-.797.275-1.77.3-2.918L33 18.5l-.053-4.13c-.023-1.16-.123-2.133-.3-2.918-.164-.797-.428-1.436-.79-1.916s-.88-.844-1.547-1.1c-.668-.258-1.518-.428-2.55-.5l-3.78-.123H7.125v21.375h16.857zM3.75 32V5h20.232c2.063 0 3.797.123 5.203.37 1.418.234 2.584.598 3.498 1.1.926.492 1.635 1.107 2.127 1.846.504.738.867 1.61 1.1 2.62.234.996.37 2.127.404 3.393l.07 4.184-.07 4.2c-.035 1.254-.17 2.385-.404 3.393-.223.996-.586 1.863-1.1 2.6-.492.738-1.2 1.354-2.127 1.846-.914.492-2.08.86-3.498 1.107-1.406.234-3.14.352-5.203.352H3.75z"/><path d="M30.31 28.572l.346.938.007-.003.007-.003-.36-.933zm2.338-3.006l-.977-.215-.002.01.98.205zm.3-2.918l-1-.03v.01l1 .02zm0-8.28l-1 .02v.01l1-.03zm-.3-2.918l-.98.202v.01l.002.008.976-.218zM30.31 8.445l-.36.933.007.003.007.003.346-.938zm-2.55-.5l-.08.997h.001l.08-.997zM7.125 7.813v-1h-1v1h1zm0 21.375h-1v1h1v-1zM3.75 32h-1v1h1v-1zm0-27V4h-1v1h1zm25.436.37l-.172.985.01.002.163-.987zm3.498 1.1l-.474.88.005.002.47-.883zm2.127 1.846l-.832.555.006.01.826-.564zm1.1 2.62l-.977.216.003.013.973-.23zm.404 3.393l-1 .028v.01l1-.037zm0 8.385l-1-.037v.01l1 .028zm-.404 3.393l-.974-.227-.002.008.976.218zm-1.1 2.6l-.826-.564-.006.01.832.555zm-2.127 1.846l-.47-.883-.005.002.474.88zm-3.498 1.107l.164.987.007-.001-.17-.985zm-5.203-1.46l3.86-.126-.16-1.994-3.7.12v2zm3.86-.126c1.085-.086 2.032-.262 2.815-.55l-.692-1.877c-.553.204-1.305.356-2.282.434l.16 1.994zm2.83-.556c.81-.312 1.49-.782 1.984-1.437l-1.595-1.206c-.23.306-.582.574-1.11.778l.72 1.866zm1.984-1.437c.477-.63.788-1.413.972-2.297l-1.958-.41c-.143.686-.36 1.17-.6 1.5l1.595 1.206zm.97-2.286c.194-.88.298-1.923.322-3.113l-2-.04c-.023 1.107-.118 2-.276 2.723l1.953.43zm.322-3.103L34 18.5h-2l-.052 4.118 2 .06zM34 18.5l-.053-4.16-2 .06.052 4.1h2zm-.053-4.15c-.024-1.2-.128-2.244-.323-3.116l-1.952.437c.156.698.252 1.6.275 2.72l2-.04zm-.32-3.1c-.184-.894-.494-1.684-.973-2.317l-1.595 1.206c.248.328.465.815.61 1.515l1.96-.403zm-.973-2.317c-.498-.66-1.184-1.125-2-1.425l-.692 1.877c.52.192.867.453 1.095.755l1.595-1.206zm-1.984-1.42c-.788-.304-1.74-.487-2.83-.574l-.16 1.994c.974.077 1.72.234 2.268.446l.72-1.866zm-2.83-.574l-3.86-.126v2l3.7.12.16-1.994zm-3.86-.126H7.125v2h16.857v-2zm-17.857 1v21.375h2V7.813h-2zm1 22.375h16.857v-2H7.125v2zM4.75 32V5h-2v27h2zm-1-26h20.232V4H3.75v2zm20.232 0c2.028 0 3.7.12 5.03.354l.345-1.97C27.876 4.125 26.08 4 23.982 4v2zm5.04.356c1.348.223 2.4.56 3.187.984l.948-1.76c-1.04-.56-2.32-.95-3.81-1.196l-.326 1.973zm3.192.986c.806.43 1.38.94 1.764 1.517l1.664-1.11c-.6-.9-1.444-1.618-2.5-2.174l-.94 1.766zm1.77 1.526c.422.618.74 1.37.94 2.27l1.953-.43c-.246-1.113-.654-2.11-1.24-2.967l-1.652 1.127zm.942 2.284c.216.917.344 1.978.378 3.19l2-.056c-.037-1.318-.177-2.518-.43-3.594l-1.947.458zm.378 3.2l.07 4.146h2l-.07-4.22-2 .075zm.07 4.146l-.07 4.164 2 .074.07-4.238h-2zm-.07 4.173c-.034 1.2-.162 2.263-.38 3.194l1.948.453c.252-1.085.393-2.284.43-3.59l-2-.056zm-.38 3.202c-.2.9-.517 1.636-.94 2.256l1.652 1.128c.585-.857.993-1.845 1.24-2.947l-1.952-.436zm-.946 2.265c-.385.578-.958 1.09-1.764 1.517l.94 1.766c1.045-.556 1.9-1.275 2.5-2.174l-1.664-1.11zm-1.77 1.52c-.79.426-1.845.768-3.195 1.003l.342 1.97c1.486-.258 2.764-.653 3.8-1.212l-.948-1.76zm-3.188 1.002c-1.334.222-3.01.338-5.04.338v2c2.096 0 3.89-.12 5.368-.365l-.33-1.973zm-5.04.338H3.75v2h20.232v-2z"/></svg>