<svg xmlns="http://www.w3.org/2000/svg" width="151" height="52" fill="none"><path d="M7.47 17.336l.014.93a5.76 5.76 0 0 0 .116.93c.064.305.166.595.308.868a2.22 2.22 0 0 0 .602.711c.26.205.588.367.984.485s.893.178 1.477.178v-1.094a4.12 4.12 0 0 1-.93-.089c-.25-.064-.458-.153-.622-.267s-.283-.264-.37-.437-.15-.37-.19-.595-.06-.47-.068-.738l-.007-.882-.014-.4a1.35 1.35 0 0 0-.096-.417c-.055-.137-.14-.27-.26-.396s-.287-.253-.506-.362c.22-.11.387-.228.506-.355s.205-.267.26-.403a1.35 1.35 0 0 0 .096-.417l.014-.4.007-.875c.005-.274.027-.522.068-.745s.105-.42.19-.595a1.16 1.16 0 0 1 .369-.431c.164-.118.37-.207.622-.267s.56-.096.93-.096v-1.094c-.583 0-1.076.06-1.477.178s-.725.28-.984.485-.46.444-.602.718-.244.556-.308.86a5.78 5.78 0 0 0-.116.936l-.014.923-.02.444c-.014.128-.062.237-.144.328s-.212.153-.4.198-.43.068-.76.068v1.094c.328 0 .58.023.76.068s.308.105.4.19.13.196.144.328a4.3 4.3 0 0 1 .021.451zm8.75 0l.02-.45c.014-.132.06-.242.143-.328s.212-.15.4-.19.43-.068.76-.068v-1.094c-.328 0-.58-.023-.76-.068s-.308-.112-.4-.198-.13-.2-.143-.328-.02-.28-.02-.444l-.02-.923c-.014-.32-.052-.63-.116-.936s-.16-.593-.3-.86-.342-.513-.6-.718-.6-.367-.99-.485-.886-.178-1.47-.178v1.094a3.8 3.8 0 0 1 .923.096c.255.06.463.148.622.267s.29.257.376.43.148.37.185.595a4.57 4.57 0 0 1 .068.745l.014.875.014.4a1.35 1.35 0 0 0 .096.417c.055.137.14.27.26.403s.287.246.506.355c-.22.11-.387.23-.506.362s-.205.26-.26.396a1.35 1.35 0 0 0-.096.417l-.014.4-.014.882a4.53 4.53 0 0 1-.068.738c-.036.223-.098.422-.185.595a1.19 1.19 0 0 1-.376.438c-.16.114-.367.203-.622.267s-.558.09-.923.09v1.094c.583 0 1.073-.06 1.47-.178s.73-.28.99-.485.46-.442.6-.71.244-.563.308-.868a5.31 5.31 0 0 0 .109-.936l.02-.923z" fill="#e78200"/><path d="M30.2 19.594l1.9-.062c.516-.04.94-.123 1.274-.246.334-.13.592-.313.773-.554s.313-.557.395-.95c.088-.398.138-.885.15-1.46l.026-2.074-.026-2.065c-.012-.58-.062-1.066-.15-1.46-.082-.4-.214-.718-.395-.958s-.44-.422-.773-.545c-.334-.13-.76-.214-1.274-.255l-1.9-.062h-8.43v10.688h8.43zM20.094 21V7.5H30.2c1.03 0 1.898.062 2.602.185.71.117 1.292.3 1.75.545.463.246.817.554 1.064.923a3.72 3.72 0 0 1 .545 1.31c.117.498.185 1.063.202 1.696l.035 2.092-.035 2.1c-.018.627-.085 1.192-.202 1.696-.11.498-.293.932-.545 1.3-.246.37-.6.677-1.064.923-.457.246-1.04.43-1.75.554-.703.117-1.57.176-2.602.176H20.094zm24.47.193c-1.125 0-2.08-.076-2.865-.23-.785-.158-1.424-.428-1.916-.81s-.85-.89-1.072-1.53-.334-1.44-.334-2.408c0-1.108.11-2.022.334-2.742.223-.727.58-1.304 1.072-1.73s1.13-.727 1.916-.897 1.74-.255 2.865-.255c.803 0 1.497.06 2.083.176.592.117 1.096.287 1.512.5.422.223.762.492 1.02.81a3.92 3.92 0 0 1 .615 1.002c.152.346.255.753.308 1.222.06.47.088.964.088 1.485l-.14.563h-9.984c0 .773.076 1.41.228 1.907.152.492.404.852.756 1.08s.814.375 1.39.44c.574.06 1.283.088 2.127.088l1.916-.06c.5-.047.914-.132 1.213-.255s.507-.293.624-.5c.123-.223.185-.5.185-.86h1.688c0 .545-.097 1.01-.3 1.398-.187.38-.5.69-.94.932-.44.234-1.02.404-1.74.5-.715.11-1.6.167-2.654.167zm0-9.193l-1.512.035a6.3 6.3 0 0 0-1.16.158c-.328.076-.61.2-.844.343a1.98 1.98 0 0 0-.571.527c-.14.2-.246.483-.316.853-.064.363-.097.803-.097 1.318H48.5c0-.686-.073-1.222-.22-1.608-.146-.393-.378-.715-.694-.967s-.724-.425-1.222-.52-1.1-.14-1.802-.14zm12.094 9h2.25l5.344-10.125h-1.97l-4.5 9-4.5-9h-1.97L56.656 21zm14.625.193c-1.125 0-2.08-.076-2.865-.23-.785-.158-1.424-.428-1.916-.81s-.85-.89-1.072-1.53-.334-1.44-.334-2.408c0-1.108.11-2.022.334-2.742.223-.727.58-1.304 1.072-1.73s1.13-.727 1.916-.897 1.74-.255 2.865-.255c.803 0 1.497.06 2.083.176.592.117 1.096.287 1.512.5.422.223.762.492 1.02.81.264.316.47.65.615 1.002.152.346.255.753.308 1.222.06.47.088.964.088 1.485l-.14.563H66.78c0 .773.076 1.41.23 1.907.152.492.404.852.756 1.08s.814.375 1.39.44a21.5 21.5 0 0 0 2.127.088l1.916-.06c.5-.047.914-.132 1.213-.255s.507-.293.624-.5c.123-.223.185-.5.185-.86h1.687c0 .545-.097 1.01-.3 1.398-.187.38-.5.69-.94.932-.44.234-1.02.404-1.74.5-.715.11-1.6.167-2.654.167zm0-9.193l-1.512.035a6.3 6.3 0 0 0-1.16.158c-.328.076-.61.2-.844.343a1.98 1.98 0 0 0-.571.527c-.14.2-.246.483-.316.853-.064.363-.097.803-.097 1.318h8.438c0-.686-.073-1.222-.22-1.608-.146-.393-.378-.715-.694-.967s-.724-.425-1.222-.52-1.1-.14-1.802-.14zm8.438-4.5h1.687V21H79.72V7.5zm4.22 8.367c0-1.037.11-1.896.334-2.575s.58-1.22 1.072-1.617 1.13-.677 1.916-.835c.785-.164 1.74-.246 2.865-.246s2.08.082 2.865.246c.785.158 1.424.437 1.916.835s.85.938 1.072 1.617.334 1.538.334 2.575-.11 1.898-.334 2.584-.58 1.23-1.072 1.635-1.13.69-1.916.86c-.785.164-1.74.246-2.865.246s-2.08-.082-2.865-.246c-.785-.17-1.424-.457-1.916-.86s-.85-.95-1.072-1.635-.334-1.547-.334-2.584zm1.688 0l.06 1.468c.04.416.117.773.23 1.072.117.3.278.542.483.73s.475.337.81.448.738.188 1.213.23l1.705.06 1.503-.035a5.6 5.6 0 0 0 1.16-.184c.334-.094.618-.226.853-.396.234-.176.422-.413.563-.712.146-.3.252-.665.316-1.1.07-.44.106-.967.106-1.582 0-.604-.035-1.116-.106-1.538-.064-.428-.17-.785-.316-1.072-.14-.287-.328-.513-.562-.677a2.42 2.42 0 0 0-.853-.378c-.328-.088-.715-.143-1.16-.167L90.125 12l-1.512.035c-.44.023-.826.08-1.16.167-.328.082-.61.208-.844.378a1.81 1.81 0 0 0-.571.677c-.14.287-.246.645-.316 1.072-.064.422-.097.935-.097 1.538zm18.844-5.273c1.125 0 2.08.085 2.865.255s1.424.46 1.916.87.85.96 1.072 1.652c.223.685.334 1.547.334 2.584 0 1.02-.11 1.866-.334 2.54s-.58 1.2-1.072 1.608-1.13.68-1.916.844-1.74.246-2.865.246c-.803 0-1.474-.044-2.013-.132s-.98-.196-1.327-.325c-.34-.135-.6-.278-.782-.43-.176-.152-.302-.296-.378-.43v4.5H98.28v-13.5h1.688v.94c.076-.117.202-.246.378-.387.18-.146.442-.28.782-.404.346-.123.788-.226 1.327-.308s1.2-.123 2.013-.123zm0 1.406l-1.503.044c-.44.03-.826.09-1.16.185-.334.088-.618.22-.853.396-.228.17-.416.4-.562.694-.147.287-.255.644-.326 1.072-.064.428-.096.94-.096 1.538 0 .604.032 1.122.096 1.556.07.434.18.797.326 1.1.146.287.334.52.562.694.235.17.52.302.853.396.334.088.72.146 1.16.176l1.503.035 1.696-.06c.48-.04.888-.114 1.222-.22s.603-.252.808-.44c.21-.187.372-.425.484-.712.117-.293.193-.642.228-1.046.04-.4.062-.89.062-1.44l-.062-1.44c-.035-.4-.11-.762-.228-1.055s-.273-.533-.484-.72a2.22 2.22 0 0 0-.808-.448c-.334-.11-.74-.187-1.222-.228L104.47 12zm14.062 9.193c-1.125 0-2.08-.076-2.865-.23-.785-.158-1.424-.428-1.916-.81s-.85-.89-1.072-1.53-.334-1.44-.334-2.408c0-1.108.11-2.022.334-2.742.222-.727.58-1.304 1.072-1.73s1.13-.727 1.916-.897 1.74-.255 2.865-.255c.803 0 1.497.06 2.083.176.592.117 1.096.287 1.512.5.422.223.762.492 1.02.81a3.95 3.95 0 0 1 .615 1.002c.152.346.255.753.307 1.222.06.47.088.964.088 1.485l-.14.563h-9.985c0 .773.076 1.41.23 1.907.152.492.404.852.756 1.08s.814.375 1.388.44c.575.06 1.284.088 2.127.088l1.916-.06c.5-.047.914-.132 1.213-.255s.507-.293.624-.5c.123-.223.185-.5.185-.86h1.687c0 .545-.096 1.01-.3 1.398-.187.38-.5.69-.94.932-.44.234-1.02.404-1.74.5-.715.11-1.6.167-2.655.167zm0-9.193l-1.51.035c-.44.023-.827.076-1.16.158-.328.076-.61.2-.843.343-.235.147-.425.322-.572.527-.14.2-.246.483-.316.853-.065.363-.097.803-.097 1.318h8.438c0-.686-.073-1.222-.22-1.608-.146-.393-.378-.715-.694-.967s-.724-.425-1.222-.52-1.1-.14-1.802-.14zm16.594 2.17c0-.422-.032-.77-.097-1.046-.058-.28-.202-.504-.43-.668-.23-.17-.57-.287-1.02-.352-.445-.07-1.055-.105-1.828-.105-.756 0-1.37.067-1.846.202-.474.13-.846.313-1.116.554a1.85 1.85 0 0 0-.554.861c-.093.334-.14.706-.14 1.116V21h-1.688V10.875h1.688v1.608c.058-.182.167-.38.325-.598.158-.223.398-.428.72-.615.322-.193.738-.354 1.248-.483s1.157-.193 1.924-.193c.88 0 1.594.08 2.145.237.55.152.98.38 1.283.686.31.3.52.67.624 1.116.112.445.167.958.167 1.538h-1.406zM48.65 33.5h10.143c.838 0 1.544.038 2.118.114.58.07 1.058.18 1.433.325s.662.328.86.545a1.97 1.97 0 0 1 .448.765c.094.293.147.62.158.984l.026 1.204-.035 1.266c-.018.387-.085.738-.202 1.055a2.12 2.12 0 0 1-.545.826c-.246.234-.6.43-1.063.59-.457.158-1.04.278-1.75.36-.703.082-1.57.123-2.602.123h-7.304V47H48.65V33.5zm1.688 6.75h7.304l1.9-.035c.516-.03.94-.08 1.274-.15s.592-.17.773-.3a1.1 1.1 0 0 0 .395-.51 2.19 2.19 0 0 0 .149-.756l.026-1.063-.026-.984c-.012-.275-.06-.507-.15-.694-.082-.187-.214-.337-.395-.448s-.44-.196-.773-.255a8.44 8.44 0 0 0-1.274-.123l-1.9-.026h-7.304v5.344zm24.706 5.36c-.018.07-.15.246-.396.527-.176.21-.4.398-.703.563-.293.158-.686.28-1.178.37-.486.094-1.128.14-1.925.14-1.06 0-1.966-.056-2.716-.167-.75-.105-1.362-.27-1.837-.492-.475-.23-.823-.52-1.046-.87-.217-.352-.325-.77-.325-1.257 0-.5.06-.94.176-1.292.123-.357.3-.656.527-.897a2.48 2.48 0 0 1 .844-.562c.328-.135.7-.237 1.116-.308a10.72 10.72 0 0 1 1.38-.132l1.59-.026c.803 0 1.474.035 2.013.105.54.064.98.15 1.318.255.346.1.606.208.782.325s.302.226.378.325a13.64 13.64 0 0 0-.088-1.679c-.053-.463-.144-.85-.273-1.16a1.95 1.95 0 0 0-.483-.738c-.2-.187-.445-.328-.738-.422-.287-.094-.624-.152-1.01-.176L71.123 38l-1.925.062c-.5.035-.914.108-1.213.22s-.5.267-.633.466c-.123.193-.184.448-.184.765H65.48c0-.533.094-.984.28-1.353.193-.37.5-.668.95-.897.445-.234 1.028-.404 1.75-.5s1.608-.158 2.663-.158c1.03 0 1.904.085 2.62.255s1.292.47 1.73.897c.445.428.765 1.005.958 1.73.2.72.3 1.635.3 2.742V47h-1.687v-1.39zm-3.92.264a13.69 13.69 0 0 0 1.863-.105c.504-.07.908-.176 1.213-.316s.52-.316.65-.527.193-.457.193-.738-.076-.52-.23-.712c-.146-.2-.396-.36-.747-.483-.346-.123-.806-.21-1.38-.264a21.5 21.5 0 0 0-2.127-.088l-2.048.044c-.516.03-.914.097-1.195.202s-.472.26-.57.466c-.094.205-.14.483-.14.835s.05.64.15.86c.105.217.316.387.633.5s.77.208 1.362.255l2.373.062zm17.7-3.375c0 .86-.07 1.582-.21 2.162-.14.574-.378 1.034-.712 1.38-.328.346-.762.592-1.3.738s-1.204.22-1.995.22c-.768 0-1.412-.06-1.934-.176s-.943-.316-1.266-.598-.554-.656-.694-1.125-.21-1.055-.21-1.758v-5.08h-2.083v-1.39H80.5v-2.77h1.688v2.77h6.355v1.39h-6.355v5.08c0 .562.04.996.123 1.3.088.305.226.527.413.668s.434.223.738.246l1.134.035.94-.018c.28-.012.524-.047.73-.105.21-.065.4-.158.536-.28.147-.13.264-.308.352-.536.094-.23.16-.516.202-.86.04-.352.062-.782.062-1.292h1.406zm12.375 4.5v-5.713c0-.61-.047-1.122-.14-1.538-.093-.422-.28-.762-.562-1.02s-.68-.442-1.195-.554c-.516-.117-1.195-.176-2.04-.176-.914 0-1.664.067-2.25.202-.58.13-1.037.313-1.37.554-.334.234-.565.52-.694.853-.123.334-.185.706-.185 1.116V47h-1.687V33.5h1.688v4.975a2.04 2.04 0 0 1 .501-.712c.217-.2.466-.37.747-.5.287-.14.595-.252.923-.334a8.31 8.31 0 0 1 .993-.202l.993-.097.905-.026c.75 0 1.395.047 1.934.14.545.088 1.004.223 1.38.404.38.176.686.395.915.66s.404.57.527.923a4.57 4.57 0 0 1 .255 1.169c.04.428.06.894.06 1.398L102.896 47h-1.688z" fill="#bcbcbc"/><circle cx="106.5" cy="41.5" r="2.5" fill="#e78200"/></svg>